<svg xmlns="http://www.w3.org/2000/svg" width="1382" height="1534" viewBox="0 0 1382 1534" version="1.1"><path d="M 676.478 0.749 C 692.628 1.080, 697.263 2.307, 686.302 3.350 C 674.023 4.519, 662.275 7.877, 653.500 12.726 C 652.400 13.334, 649.700 14.617, 647.500 15.577 C 645.300 16.536, 642.375 18.079, 641 19.004 C 639.625 19.930, 636.596 21.938, 634.270 23.466 C 623.376 30.621, 603 52.423, 603 56.923 C 603 57.515, 602.550 58, 602 58 C 601.450 58, 601 58.632, 601 59.405 C 601 60.617, 599.621 63.801, 595.875 71.236 C 595.394 72.191, 595 74.934, 595 77.331 C 595 80.437, 594.418 82.217, 592.976 83.521 C 591.596 84.770, 591.278 85.678, 591.976 86.376 C 593.568 87.968, 593.186 88.861, 591.141 88.327 C 589.684 87.946, 589.136 88.561, 588.610 91.170 C 586.770 100.281, 584.999 124.109, 584.991 139.857 C 584.983 158.313, 583.614 178.735, 582.101 183 C 581.613 184.375, 580.667 188.200, 579.998 191.500 C 577.436 204.140, 567.201 219.011, 557.698 223.898 C 555.210 225.178, 552.952 227.077, 552.679 228.119 C 552.382 229.257, 550.949 230.260, 549.092 230.632 C 547.391 230.972, 546 231.630, 546 232.095 C 546 232.559, 544.496 232.883, 542.657 232.813 C 538.494 232.657, 536.152 233.848, 538.143 235.110 C 539.200 235.779, 539.113 235.973, 537.750 235.985 C 536.787 235.993, 536.112 236.515, 536.250 237.144 C 536.387 237.774, 534.925 238.701, 533 239.206 C 531.075 239.710, 527.814 240.562, 525.754 241.099 C 523.694 241.636, 521.149 242.997, 520.099 244.124 C 518.645 245.685, 517.751 245.941, 516.345 245.200 C 515.205 244.600, 511.253 244.543, 506 245.051 C 493.582 246.253, 470.746 246.220, 471.500 245 C 471.867 244.406, 470.775 244.029, 468.809 244.070 C 466.203 244.126, 465.916 244.303, 467.458 244.906 C 471.927 246.654, 441.425 246.986, 273.941 247.014 C 112.879 247.040, 88.448 247.369, 84.900 249.562 C 84.255 249.960, 82.777 250.352, 81.614 250.434 C 80.423 250.517, 79.627 251.163, 79.791 251.913 C 79.971 252.739, 79.508 253.025, 78.573 252.666 C 76.362 251.818, 75.654 253.700, 77.729 254.908 C 79.585 255.988, 75.083 256.581, 68.760 256.088 C 66.918 255.945, 65.242 256.715, 63.646 258.437 C 62.339 259.847, 60.422 261.004, 59.385 261.009 C 57.071 261.021, 47 266.683, 47 267.973 C 47 268.486, 45.313 269.706, 43.250 270.683 C 39.195 272.605, 26 285.029, 26 286.925 C 26 287.563, 25.557 288.628, 25.015 289.292 C 21.100 294.093, 18.974 297.094, 16.664 301.080 C 13.748 306.110, 9.710 317.043, 10.482 317.815 C 10.750 318.083, 10.188 318.887, 9.234 319.601 C 7.589 320.834, 7.590 321.062, 9.250 324.031 C 11.235 327.583, 11.449 329, 10 329 C 9.450 329, 9 328.100, 9 327 C 9 321.993, 7.187 325.721, 6.569 332 C 5.844 339.358, 4.406 341.253, 3.723 335.750 C 3.367 332.875, 3.302 332.981, 3.160 336.668 C 2.827 345.353, 1.491 344.349, 0.941 335 C 0.634 329.775, 0.402 354.750, 0.426 390.500 C 0.465 450.784, 0.506 452.307, 0.984 411.500 C 1.306 384.026, 1.815 368.993, 2.338 371.476 C 10.940 412.306, 38.370 441.436, 81.500 455.545 C 94.200 459.700, 497.248 460.687, 530 456.643 C 739.656 430.761, 840.484 311.212, 824.049 108 C 819.972 57.590, 776.606 7.974, 731.198 1.768 C 730.264 1.640, 746.825 1.295, 768 1 C 796.751 0.600, 788.142 0.461, 734 0.453 C 694.125 0.447, 668.240 0.580, 676.478 0.749 M 1238.500 244.660 C 1093.508 259.068, 981.549 339.853, 913.035 479.500 C 894.204 517.882, 859 611.056, 859 622.515 C 859 623.346, 858.586 624.809, 858.079 625.764 C 857.573 626.719, 855.556 632, 853.597 637.500 C 840.268 674.926, 836.141 685.898, 828.144 705.165 C 812.682 742.420, 797.019 773.450, 772.363 815.673 C 765.564 827.318, 760 837.146, 760 837.513 C 760 837.881, 758.059 840.503, 755.686 843.341 C 753.314 846.178, 747.837 853.403, 743.516 859.396 C 721.766 889.557, 700.905 898.501, 681.532 885.968 C 679.865 884.889, 676.587 883.084, 674.250 881.956 C 671.913 880.829, 670 879.676, 670 879.394 C 670 879.112, 670.450 879.160, 671 879.500 C 673.081 880.786, 671.789 878.822, 664.947 870.294 C 645.214 845.699, 622.846 811.511, 598.854 769.273 C 595.035 762.548, 590.805 755.733, 589.455 754.128 C 588.105 752.524, 587 750.710, 587 750.097 C 587 749.484, 582.101 739.192, 576.112 727.225 C 570.124 715.258, 560.196 694.674, 554.050 681.483 C 534.747 640.055, 532.670 636.177, 524.521 626.350 C 518.232 618.765, 510.694 612, 508.533 612 C 508.017 612, 504.876 609.544, 502.460 607.250 C 501.735 606.563, 500.484 606, 499.678 606 C 498.873 606, 497.964 605.349, 497.659 604.553 C 487.694 578.585, 407.611 590.003, 375.973 621.903 C 367.742 630.202, 359 643.851, 359 648.403 C 359 649.281, 358.550 650, 358 650 C 357.450 650, 357 651.141, 357 652.535 C 357 653.930, 356.328 656.096, 355.507 657.350 C 350.030 665.708, 347.760 694.088, 351.318 709.725 C 361.388 753.983, 446.863 906.470, 509.594 992.089 C 551.805 1049.701, 552.432 1072.411, 512.632 1102.162 C 405.376 1182.340, 256.100 1252.303, 112.922 1289.501 C 44.784 1307.203, 11.635 1338.143, 2.313 1392.741 C 1.788 1395.813, 1.316 1384.383, 0.981 1360.500 C 0.499 1326.103, 0.458 1327.405, 0.389 1379 C 0.348 1409.525, 0.581 1432.250, 0.907 1429.500 C 1.500 1424.500, 1.500 1424.500, 2.885 1432 C 4.346 1439.912, 9.363 1456.496, 10.867 1458.385 C 11.356 1458.998, 12.089 1460.625, 12.496 1462 C 13.460 1465.251, 22.212 1479.835, 25.189 1483.151 C 26.460 1484.566, 28.012 1486.573, 28.638 1487.612 C 29.265 1488.650, 30.502 1489.438, 31.388 1489.361 C 32.357 1489.278, 33 1489.985, 33 1491.135 C 33 1502.889, 84.752 1530.909, 108.739 1532.142 C 110.903 1532.253, 110.635 1532.439, 107.500 1533 C 105.300 1533.394, 139.275 1533.673, 183 1533.620 C 262.500 1533.523, 262.500 1533.523, 201 1533.012 C 139.500 1532.500, 139.500 1532.500, 149 1530.697 C 192.938 1522.358, 329.349 1463.743, 423.500 1412.746 C 510.339 1365.710, 568.549 1326.900, 646 1264.398 C 678.189 1238.422, 682.163 1235.827, 694.724 1232.571 C 718.605 1226.383, 739.656 1234.700, 773.817 1263.820 C 776.191 1265.844, 779.582 1268.400, 781.353 1269.500 C 783.124 1270.600, 790.406 1276.055, 797.536 1281.622 C 859.928 1330.337, 954.748 1390.683, 1028.324 1428.501 C 1081.062 1455.609, 1160.844 1490.388, 1172.126 1491.189 C 1173.982 1491.320, 1176.099 1492.011, 1176.831 1492.723 C 1177.562 1493.436, 1178.603 1493.745, 1179.144 1493.411 C 1179.684 1493.077, 1180.885 1493.456, 1181.813 1494.252 C 1184.120 1496.232, 1203.129 1503.135, 1216.500 1506.848 C 1332.718 1539.118, 1422.618 1413.809, 1352.942 1316.665 C 1334.832 1291.416, 1301.274 1272.109, 1263 1264.919 C 1144.299 1242.619, 974.651 1169.263, 889.369 1103.361 C 870.572 1088.835, 863.427 1074.175, 866.065 1055.547 C 867.811 1043.214, 868.271 1042.414, 900.125 996.273 C 963.404 904.614, 1005.270 818.321, 1041.441 705 C 1058.087 652.849, 1070.849 616.383, 1081.054 591.815 C 1082.124 589.238, 1083 585.949, 1083 584.506 C 1083 583.063, 1083.410 582.135, 1083.911 582.445 C 1084.413 582.755, 1087.178 578.640, 1090.056 573.301 C 1133.254 493.169, 1178.902 463.217, 1263.500 459.496 C 1331.645 456.499, 1372.918 421.337, 1380.022 360.226 C 1388.479 287.482, 1325.457 236.019, 1238.500 244.660" stroke="none" fill="#257fbb" fill-rule="evenodd"/></svg>