<svg xmlns="http://www.w3.org/2000/svg" width="203" height="200" viewBox="0 0 203 200" version="1.1"><path d="M 90.462 2.982 C 82.588 6.107, 78.922 10.737, 71.443 27 C 67.776 34.975, 63.416 44.425, 61.755 48 C 60.095 51.575, 56.592 59.225, 53.971 65 C 51.351 70.775, 46.412 81.575, 42.996 89 C 39.581 96.425, 34.856 106.775, 32.497 112 C 30.139 117.225, 26.315 125.550, 24.001 130.500 C 12.063 156.033, 5.244 171.906, 4.681 175.473 C 2.938 186.508, 12.950 197.914, 24.434 197.978 C 29.427 198.006, 36.174 194.764, 39.640 190.672 C 42.180 187.673, 47.780 176.487, 57.496 155 C 59.859 149.775, 65.260 137.850, 69.499 128.500 C 73.738 119.150, 80.116 104.975, 83.673 97 C 94.070 73.685, 100.248 61, 101.205 61 C 102.689 61, 126.215 111.843, 125.366 113.216 C 125.100 113.647, 117.371 114.010, 108.191 114.022 C 89.283 114.047, 85.907 114.925, 80.341 121.264 C 72.062 130.694, 75.350 147.171, 86.494 152.100 C 90.431 153.842, 93.413 154.027, 117.989 154.052 L 145.136 154.081 146.478 157.290 C 148.958 163.223, 159.516 184.480, 161.890 188.322 C 165.203 193.683, 171.076 197.115, 177.902 197.681 C 185.481 198.309, 191.260 195.353, 195.847 188.500 C 198.913 183.920, 199.158 182.996, 198.764 177.500 C 198.284 170.802, 197.097 168.045, 166.501 102.500 C 156.744 81.600, 147.958 62.651, 146.977 60.391 C 145.995 58.130, 144.060 53.855, 142.678 50.891 C 141.295 47.926, 136.728 38.075, 132.529 29 C 124.548 11.750, 121.389 7.325, 114.500 3.747 C 108.661 0.713, 97.106 0.346, 90.462 2.982" stroke="none" fill="#ec8c2d" fill-rule="evenodd"/></svg>