<svg xmlns="http://www.w3.org/2000/svg" width="175" height="174" viewBox="0 0 175 174" version="1.1"><path d="M 79.759 2.359 C 74.003 4.511, 71.233 6.671, 68.322 11.275 C 65.754 15.337, 17.397 119.744, 8.384 140.686 C 3.391 152.287, 3.046 155.877, 6.324 162.093 C 11.540 171.982, 23.761 174.696, 32.417 167.887 C 35.787 165.236, 43.229 150.406, 61.094 110.745 C 78.022 73.165, 87.087 54, 87.935 54 C 88.280 54, 90.195 57.263, 92.189 61.250 L 95.815 68.500 97.378 64.854 C 100.073 58.564, 106.944 34.877, 108.665 25.943 C 109.624 20.967, 110.010 16.177, 109.589 14.497 C 108.790 11.316, 103.447 5.800, 98.874 3.435 C 94.638 1.244, 84.298 0.662, 79.759 2.359 M 120.086 45.750 C 119.453 48.362, 116.206 59.206, 112.869 69.847 C 107.157 88.067, 106.566 91.424, 108.090 97 C 108.438 98.274, 106.317 98.542, 94 98.780 L 79.500 99.061 72.791 114.780 C 69.101 123.426, 65.790 131.287, 65.434 132.250 C 64.826 133.892, 66.655 134.001, 95.143 134.014 L 125.500 134.028 132.710 148.876 C 140.545 165.009, 143.923 169.094, 151.002 171 C 159.466 173.280, 168.426 168.689, 171.567 160.464 C 173.111 156.420, 173.188 155.153, 172.129 151.194 C 170.205 143.997, 123.240 41, 121.883 41 C 121.528 41, 120.719 43.138, 120.086 45.750" stroke="none" fill="#ef8724" fill-rule="evenodd"/></svg>